<svg version="1.0" xmlns="http://www.w3.org/2000/svg" width="300.000000pt" height="300.000000pt" viewBox="0 0 300.000000 300.000000" preserveAspectRatio="xMidYMid meet">
    <g transform="translate(0.000000,300.000000) scale(0.100000,-0.100000)" fill="#000000" stroke="none">
        <path d="M2005 2409 c-126 -13 -226 -68 -358 -197 l-87 -86 -93 90 c-107 105 -147 132 -242 166 -122 44 -306 34 -417 -23 -109 -55 -224 -171 -271 -272 -83 -175 -71 -376 31 -537 22 -33 216 -235 486 -506 489 -489 487 -487 556 -453 19 10 155 139 303 287 147 148 268 266 268 263 2 -6 5 -100 8 -183 2 -88 81 -141 157 -105 66 32 67 38 66 334 -2 292 -2 295 -65 333 -30 18 -52 20 -290 20 -284 0 -303 -3 -332 -60 -25 -47 -19 -84 19 -124 25 -27 42 -36 67 -37 27 0 168 -6 214 -9 6 0 -6 -12 -25 -27 -19 -15 -125 -116 -234 -225 -110 -109 -202 -198 -205 -198 -4 0 -184 179 -402 397 -253 254 -407 416 -425 448 -26 45 -29 59 -29 140 0 107 22 161 95 233 107 105 211 136 340 102 62 -16 94 -42 249 -197 74 -74 143 -138 155 -143 12 -4 30 -3 41 2 11 6 85 75 165 154 117 115 157 148 205 169 118 53 241 29 353 -68 60 -53 81 -61 126 -53 35 7 65 33 88 80 14 27 13 32 -6 65 -49 83 -167 170 -271 201 -58 17 -171 26 -240 19z m-830 -34 c100 -27 172 -72 285 -182 l104 -102 106 102 c117 114 163 145 264 176 170 52 363 6 502 -122 60 -54 73 -90 50 -135 -31 -61 -86 -58 -162 8 -89 78 -132 95 -239 95 -144 0 -162 -10 -356 -202 l-165 -163 -149 149 c-105 107 -165 159 -209 183 -57 31 -67 33 -156 33 -83 0 -102 -3 -150 -27 -58 -29 -146 -109 -180 -165 -33 -55 -53 -141 -47 -204 11 -125 19 -135 475 -592 l417 -417 230 230 c214 214 233 230 266 230 56 0 98 -56 78 -107 -5 -14 -128 -144 -273 -289 -253 -253 -266 -264 -302 -264 -37 0 -53 14 -487 448 -246 246 -465 473 -487 504 -104 156 -115 346 -29 518 67 134 214 256 356 295 66 18 187 18 258 0z m1178 -893 l27 -28 0 -269 c0 -262 -1 -269 -22 -292 -29 -31 -87 -31 -116 0 -21 22 -22 33 -24 236 l-3 212 -212 2 c-209 2 -212 2 -237 26 -33 31 -35 85 -4 118 21 23 22 23 293 23 l271 0 27 -28z m-167 -196 c3 -14 2 -32 -3 -40 -7 -14 -15 -10 -48 24 l-39 40 42 0 c36 0 42 -3 48 -24z"/>
    </g>
</svg>
